<svg width="18" height="20" viewBox="0 0 18 20" fill="none" xmlns="http://www.w3.org/2000/svg">
<path d="M3.99996 5H14V6.79C14 7.24 14.54 7.46 14.85 7.14L17.64 4.35C17.84 4.15 17.84 3.84 17.64 3.64L14.85 0.850002C14.54 0.540002 14 0.760002 14 1.21V3H2.99996C2.44996 3 1.99996 3.45 1.99996 4V8C1.99996 8.55 2.44996 9 2.99996 9C3.54996 9 3.99996 8.55 3.99996 8V5ZM14 15H3.99996V13.21C3.99996 12.76 3.45996 12.54 3.14996 12.86L0.359961 15.65C0.159961 15.85 0.159961 16.16 0.359961 16.36L3.14996 19.15C3.45996 19.46 3.99996 19.24 3.99996 18.79V17H15C15.55 17 16 16.55 16 16V12C16 11.45 15.55 11 15 11C14.45 11 14 11.45 14 12V15Z" fill="black"/>
</svg>
